<?xml version="1.0" encoding="utf-8"?>
<!-- Generator: Adobe Illustrator 25.2.0, SVG Export Plug-In . SVG Version: 6.00 Build 0)  -->
<svg version="1.1" id="Capa_1" xmlns="http://www.w3.org/2000/svg" xmlns:xlink="http://www.w3.org/1999/xlink" x="0px" y="0px"
	 viewBox="0 0 407.5 407.5" style="enable-background:new 0 0 407.5 407.5;" xml:space="preserve">
<g>
	<path d="M255.1,116.5c4.5,0,8.1-3.6,8.1-8.1s-3.6-8.1-8.1-8.1H143.5c-4.5,0-8.1,3.6-8.1,8.1s3.6,8.1,8.1,8.1H255.1z"/>
	<path d="M367.1,100.3h-55.4c-4.5,0-8.1,3.6-8.1,8.1s3.6,8.1,8.1,8.1h47.2v274.7H48.5V116.5H93c4.5,0,8.1-3.6,8.1-8.1
		s-3.6-8.1-8.1-8.1H40.4c-4.5,0-8.1,3.6-8.1,8.1v290.9c0,4.5,3.6,8.1,8.1,8.1h326.7c4.5,0,8.1-3.6,8.1-8.1V108.4
		C375.2,103.9,371.6,100.3,367.1,100.3z"/>
	<path d="M282.6,134.8c4.5,0,8.1-3.6,8.1-8.1V67.4c0-37.2-40.1-67.4-89.6-67.4c-49.3,0-89.4,30.2-89.4,67.4v59.3
		c0,4.5,3.6,8.1,8.1,8.1s8.1-3.6,8.1-8.1V67.4c0-28.2,32.8-51.1,73.4-51.1c40.3,0,73.2,22.9,73.2,51.1v59.3
		C274.5,131.2,278.1,134.8,282.6,134.8z"/>
	<path d="M98.9,147.6c0,11.5,9.4,20.9,20.9,20.9s20.9-9.4,20.9-20.9c0-4.5-3.6-8.1-8.1-8.1s-8.1,3.6-8.1,8.1c0,2.6-2.1,4.6-4.7,4.6
		s-4.7-2.1-4.7-4.6c0-4.5-3.6-8.1-8.1-8.1S98.9,143.1,98.9,147.6z"/>
	<path d="M282.6,168.5c11.5,0,20.9-9.4,20.9-20.9c0-4.5-3.6-8.1-8.1-8.1s-8.1,3.6-8.1,8.1c0,2.6-2.1,4.6-4.7,4.6s-4.7-2.1-4.7-4.6
		c0-4.5-3.6-8.1-8.1-8.1s-8.1,3.6-8.1,8.1C261.7,159.1,271.1,168.5,282.6,168.5z"/>
</g>
</svg>
