<?xml version="1.0" encoding="UTF-8"?>
<svg xmlns="http://www.w3.org/2000/svg" xmlns:xlink="http://www.w3.org/1999/xlink" viewBox="0 0 48 48" width="48px" height="48px">
<g id="surface369062">
<rect x="0" y="0" width="48" height="48" style="fill:rgb(100%,100%,100%);fill-opacity:1;stroke:none;"/>
<path style=" stroke:none;fill-rule:nonzero;fill:rgb(100%,75.686276%,2.745098%);fill-opacity:1;" d="M 46.550781 19.496094 L 44.699219 19.496094 L 44.699219 19.398438 L 24 19.398438 L 24 28.601562 L 37 28.601562 C 35.101562 33.957031 30.007812 37.800781 24 37.800781 C 16.378906 37.800781 10.199219 31.621094 10.199219 24 C 10.199219 16.378906 16.378906 10.199219 24 10.199219 C 27.519531 10.199219 30.71875 11.527344 33.15625 13.695312 L 39.660156 7.1875 C 35.554688 3.359375 30.058594 1 24 1 C 11.296875 1 1 11.296875 1 24 C 1 36.703125 11.296875 47 24 47 C 36.703125 47 47 36.703125 47 24 C 47 22.457031 46.839844 20.953125 46.550781 19.496094 Z M 46.550781 19.496094 "/>
<path style=" stroke:none;fill-rule:nonzero;fill:rgb(100%,23.921569%,0%);fill-opacity:1;" d="M 3.652344 13.292969 L 11.207031 18.835938 C 13.253906 13.773438 18.207031 10.199219 24 10.199219 C 27.519531 10.199219 30.71875 11.527344 33.15625 13.695312 L 39.660156 7.1875 C 35.554688 3.359375 30.058594 1 24 1 C 15.164062 1 7.503906 5.988281 3.652344 13.292969 Z M 3.652344 13.292969 "/>
<path style=" stroke:none;fill-rule:nonzero;fill:rgb(29.803923%,68.627453%,31.37255%);fill-opacity:1;" d="M 24 47 C 29.941406 47 35.339844 44.726562 39.421875 41.027344 L 32.300781 35.003906 C 29.992188 36.753906 27.121094 37.800781 24 37.800781 C 18.019531 37.800781 12.9375 33.984375 11.023438 28.660156 L 3.523438 34.441406 C 7.332031 41.890625 15.0625 47 24 47 Z M 24 47 "/>
<path style=" stroke:none;fill-rule:nonzero;fill:rgb(9.803922%,46.27451%,82.352942%);fill-opacity:1;" d="M 46.550781 19.496094 L 44.699219 19.496094 L 44.699219 19.398438 L 24 19.398438 L 24 28.601562 L 37 28.601562 C 36.085938 31.171875 34.433594 33.390625 32.296875 35.007812 C 32.300781 35.003906 32.300781 35.003906 32.300781 35.003906 L 39.421875 41.027344 C 38.917969 41.484375 47 35.5 47 24 C 47 22.457031 46.839844 20.953125 46.550781 19.496094 Z M 46.550781 19.496094 "/>
</g>
</svg>
