<svg xmlns="http://www.w3.org/2000/svg" xmlns:xlink="http://www.w3.org/1999/xlink" viewBox="0 0 854.87 765.47"><defs><style>.cls-1,.cls-2,.cls-4{stroke:#000;stroke-miterlimit:10;}.cls-1,.cls-2{stroke-width:0.25px;}.cls-1{fill:url(#linear-gradient);}.cls-2{fill:url(#linear-gradient-2);}.cls-3,.cls-4{fill:#fff;}.cls-4{stroke-width:0.75px;}</style><linearGradient id="linear-gradient" x1="129.87" y1="-19.26" x2="817.26" y2="404.91" gradientUnits="userSpaceOnUse"><stop offset="0" stop-color="#c69c6d"/><stop offset="0.25" stop-color="#b1875a"/><stop offset="0.78" stop-color="#7a512a"/><stop offset="1" stop-color="#603813"/></linearGradient><linearGradient id="linear-gradient-2" x1="-131.7" y1="132.29" x2="994.21" y2="900.52" gradientUnits="userSpaceOnUse"><stop offset="0" stop-color="#ff7c97"/><stop offset="0.6" stop-color="#ff9d4b"/><stop offset="1" stop-color="#ffb516"/></linearGradient></defs><g id="Layer_2" data-name="Layer 2"><g id="Layer_1-2" data-name="Layer 1"><path class="cls-1" d="M621.91,149.35C600.89,73.86,521.75,1.1,426.93.13c-94.82,1-174,73.73-195,149.22-10.48,37.6-5.14,70.94,0,91h390C627.05,220.29,632.39,187,621.91,149.35Zm-16.19,71H248.14a150.4,150.4,0,0,1,3.08-65.63c9.42-33.86,32.43-67.52,63.13-92.38,33-26.77,73-41.75,112.58-42.21,39.55.46,79.53,15.44,112.58,42.21,30.7,24.86,53.71,58.52,63.13,92.37A150.45,150.45,0,0,1,605.72,220.35Z"/><path class="cls-2" d="M818.85,765.35H36A35.89,35.89,0,0,1,.58,723.79L78.1,239.56a35.87,35.87,0,0,1,35.43-30.21H741.34a35.88,35.88,0,0,1,35.43,30.21l77.51,484.23A35.89,35.89,0,0,1,818.85,765.35Z"/><path class="cls-3" d="M134.89,520.7c-7.52,0-16.35-1.31-18-8.5l-.33-3.27c0-13.73,9.81-48.4,16-69.32h-7.2c-8.17,0-14.71-.33-19-2C98.92,435,92.7,428.49,92.7,420.32a12.63,12.63,0,0,1,.66-4.91,3.14,3.14,0,0,1,2.94-2.29,4.08,4.08,0,0,1,2.62,1.31c2.61,2.94,9.15,3.92,17.65,3.92a214.17,214.17,0,0,0,23.22-1.63c9.16-28.12,18-54,21.91-62.46.65-2,3.27-2.94,4.9-3.27-17.33,2.95-39.56,8.51-58.2,8.51a70.4,70.4,0,0,1-14.71-1.31c-10.47-2.29-12.76-8.5-12.76-16.68,0-4.58,1-9.81,1.31-15.37a2.92,2.92,0,0,1,2.94-2.94,3,3,0,0,1,2.62,1.31c3.27,4.25,12.43,5.88,24.85,5.88,35.31,0,97.44-13.07,119-13.07,21.91,0,34.34,12.09,34.34,26.48,0,6.54-2.62,13.41-8.5,19.95a3.75,3.75,0,0,1-2.62,1,3.22,3.22,0,0,1-3.27-2.94l.33-1.31a24.36,24.36,0,0,0,1.63-7.2c0-4.57-2.61-7.19-6.54-8.82-3.59-1.31-8.17-1.64-14.06-1.64-18,0-44.14,4.91-62.45,7.52,7.52,0,18.64,5.23,18.64,10.14l-.33,1.31c-2.29,6.21-9.48,26.15-17.66,50l18-2.61c10.46,0,10.79,10.14,12.09,19l.33,1.31a3.09,3.09,0,0,1-2.61,2.94c-5.24,1.31-20.28,3.6-36.3,4.91-7.52,22.56-21.25,66.7-21.25,80.11a3.28,3.28,0,0,1-3.27,3.27Z"/><path class="cls-3" d="M289.54,504.68c-8.17,0-16.67-1-20.27-7.85-2-3.27-2.61-8.17-2.61-13.73,0-3.27.32-6.54.65-10.47-7.52,13.08-18,25.84-30.74,25.84h-.65c-15.7-.33-22.24-13.41-22.24-30.41,0-32.38,23.55-78.48,55.92-78.48h.32c8.51,0,15.37,2.94,19.3,9.16l2.29-5.89c1.63-2.62,4.57-3.6,8.5-3.6,7.52,0,17.66,4.58,17.66,9.81l-.33,1.31c-4.25,10.46-25.51,66.71-26.16,90.25,0,4.58.33,7.52,2,7.52,10.79-.33,31.39-42.18,40.87-62.78a2.74,2.74,0,0,1,2.95-2l1.63.32a2.6,2.6,0,0,1,1.64,2.62,3.52,3.52,0,0,1-.33,1.63c-10.79,23.22-31.06,66-46.43,66.71Zm-14.06-67.36c1.64-4.25,4.58-13.08,4.58-20.27,0-4.58-1.31-8.18-4.9-9.16l-2-.33c-14.71,0-33.35,44.47-33.35,63.77,0,5.55,1.64,8.82,4.91,8.82C254.56,479.83,272.21,445.49,275.48,437.32Z"/><path class="cls-3" d="M349.71,504.68c-19.3,0-28.45-12.43-28.45-26.49A38.63,38.63,0,0,1,328.78,456a8.2,8.2,0,0,1,6.86-3.27c7.53,0,17,6.86,17,11.44a2.83,2.83,0,0,1-1.31,2.29c-5.23,4.25-9.81,15.7-9.81,22.56,0,2.62.65,4.25,2,5.23a2.39,2.39,0,0,0,2,.66c2,0,4.26-1.64,5.89-3.6,4.58-5.88,5.89-14.06,5.89-23.21,0-15.7-3.93-34-3.93-48.4a47.69,47.69,0,0,1,.33-6.86l-11.77,25.5a3.92,3.92,0,0,1-2.95,1.64,2.91,2.91,0,0,1-1.63-.33,2.24,2.24,0,0,1-1.64-2.29A5.52,5.52,0,0,1,336,435c2.62-5.89,19.62-45.78,25.83-45.78H386a3,3,0,0,1,3.27,2.95,3.11,3.11,0,0,1-.65,2.28,45.74,45.74,0,0,0-7.85,26.16c0,13.74,4.58,27.47,4.58,41.53a50.21,50.21,0,0,1-1,9.81c-1.64,7.52-3.6,13.41-6.54,18a194.59,194.59,0,0,0,16.34-21.25A296.49,296.49,0,0,0,412.49,435a2.84,2.84,0,0,1,2.94-1.63,3.59,3.59,0,0,1,1.63.32,3.44,3.44,0,0,1,1.64,2.95l-.33,1.3a292.87,292.87,0,0,1-19.29,35,164.91,164.91,0,0,1-15.37,20.27c-9.81,10.79-21.25,11.45-31.06,11.45Z"/><path class="cls-3" d="M461.53,486c.65-24.2,19.62-76.51,19.62-80.11,0-1.64-.33-2.29-1.31-2.29s-2.29,1.31-3.27,2.29c-18,16.67-37.93,50.35-43.82,60.82-4.25,15-7.52,27.79-7.52,34.66,0,3.27-2.61,3.27-6.54,3.27-10.79,0-17.33-2-18.31-12.1,0-25.83,35.64-125.56,43.82-145.51,1-2.61,4.25-3.6,8.5-3.6,8.17,0,19.29,4.58,19.29,9.81l-.33,1.31c-3.92,9.48-19,50-31.06,87,4.58-7.19,10.14-15.37,16-22.89,10.47-12.75,23.22-29.43,37.28-29.43,8.17,0,15,4.91,15,13.74l-.33,3.92c-4.57,22.56-20.27,66.38-20.27,85.34q0,5.89,2,5.89c9.16-.66,16-15.37,36.95-62.78a3.15,3.15,0,0,1,2.94-2,3.23,3.23,0,0,1,3.28,2.94l-.33,1.63c-22.89,52-30.09,66-42.51,66.71l-9.16.33C470,505,461.53,502.06,461.53,486Z"/><path class="cls-3" d="M542.29,504.68c-8.18,0-16.68-1-20.27-7.85-2-3.27-2.95-8.5-2.95-14.39,0-6.86,1.31-15,2.95-23.54,5.23-24.52,16-53.63,20.92-65.72,1.31-2.62,4.58-3.93,8.18-3.93,7.85,0,18,4.91,18,9.81l-.33,1.31c-2.61,7.19-25.5,72.26-25.5,92.21,0,3.6.65,5.56,2.62,5.56,10.79-.33,31.06-42.18,40.21-62.78a2.74,2.74,0,0,1,2.95-2l1.63.32a2.6,2.6,0,0,1,1.64,2.62A2.91,2.91,0,0,1,592,438c-10.46,23.22-30.41,66-45.45,66.71ZM554.39,369c0-5.23,3.92-18,5.88-22.24,1-2.94,3.93-3.92,7.52-3.92,7.52,0,17.33,5.23,17.33,10.14a3.14,3.14,0,0,1-.65,2.29c-1.63,2.94-6.21,14.71-8.5,19.62-.66,1.63-2.94,2.28-5.56,2.28C563.87,377.15,554.39,373.23,554.39,369Z"/><path class="cls-3" d="M581.2,467.08c0-33.68,22.56-77.83,53-77.83a37.3,37.3,0,0,1,8.17,1c15.7,3.93,20.27,18.64,20.27,34a98.34,98.34,0,0,1-4.25,27.14c10.79,0,22.57-5.56,28.12-16.35a2.7,2.7,0,0,1,2.62-1.63,4.59,4.59,0,0,1,2,.65,2.2,2.2,0,0,1,1.31,2.29,4.11,4.11,0,0,1-.33,2c-6.54,12.43-20.27,19.62-33.35,19.62h-2.62c-7.19,20.6-23.21,46.76-45.77,46.76C589.7,504.68,581.2,488,581.2,467.08Zm60.49-14.39c-5.23-3.93-7.2-9.81-7.2-15.37,0-9.48,5.89-19,12.1-20.6-1-4.25-2.94-7.52-7.19-7.52h-1.64c-15.69,2.61-33,47.08-33,70.63,0,8.17,2,14.06,6.86,14.71h1C625.34,494.54,638.09,462.82,641.69,452.69Z"/><path class="cls-3" d="M756.13,505.33c-12.76,0-21.91-2-21.91-19.29v-2.29c1.31-21.91,19.62-73.57,19.62-77.17,0-1.63-.66-2.29-1.31-2.29-1,0-2.29,1-3.27,2-2.94,2.61-11.12,12.42-14.72,17a383,383,0,0,0-28.77,43.49c-4.25,14.71-7.19,27.79-7.52,35.31,0,2.29-1.64,2.95-3.6,3.27h-2c-8.17,0-19-2-19-9.48,0-6.87,3.27-22.89,8.17-40.22,6.21-23.54,14.71-50,19.29-62.13,1-2.61,3.93-3.59,7.85-3.59,7.85,0,18.64,4.57,18.64,9.48l-.33,1.63c-2.61,6.22-13.08,38.26-14.06,41.2,4.91-7.52,10.47-15.36,16-22.88,6.87-8.83,16.35-19.62,25.18-25.84a22.16,22.16,0,0,1,12.1-3.92c8.17,0,15.37,5.23,15.37,14.06l-.33,3.92c-4.58,22.57-20.27,66.05-20.27,85,0,3.27.33,5.56,1.31,6.21,1.3.33,2,2,2,3.27,0,1.64-1,3.27-2.29,3.27Z"/><path class="cls-3" d="M292.64,757.15c-30.08,0-56.89-19.62-56.89-61.47,0-55.91,46.43-142.24,108.56-142.89,29.42,0,43.16,16.67,43.16,40.22,0,28.12-20.6,68.34-38.59,80.44a19,19,0,0,1-10.79,2.94c-10.79,0-24.52-6.54-25.5-13.74a3.09,3.09,0,0,1,3.27-3.27c18-1.63,53.62-54.28,53.62-78.14,0-7.85-4.57-11.12-11.44-11.12a47.1,47.1,0,0,0-7.19,1C309,579.93,269.1,663.63,269.1,711.7c0,19.29,7.19,29.76,25.83,30.09,36.62,0,75.21-42.51,93.85-70.31a3.89,3.89,0,0,1,2.94-1.63c2,.33,3.27,1,3.27,3.27l-.33,1.31C377.66,716,342,757.15,293.3,757.15Z"/><path class="cls-3" d="M421.8,741.13c-27.8-1-37.93-17.33-37.93-37.93,0-10.14,2.28-20.93,6.21-31.39,7.85-20.93,25.18-46.11,49.05-46.11h1.3c12.43.33,22.57,6.54,22.57,19v.65c-.66,23.22-24.53,51.67-42.18,51.67a13.72,13.72,0,0,1-9.16-3.27,75.35,75.35,0,0,0-1.31,12.42c0,12.43,3.6,25.18,14.39,27.47l3.59.33a31.56,31.56,0,0,0,7.2-1c11.44-4.25,27.79-18.32,48.39-61.15a3.07,3.07,0,0,1,2.62-2,4.73,4.73,0,0,1,2,.65,2.6,2.6,0,0,1,1.64,2.62,3.26,3.26,0,0,1-.33,1.31c-21.91,45.77-39.89,60.49-53,65.07a38.81,38.81,0,0,1-11.45,1.63Zm30.08-94.83a3.82,3.82,0,0,0-1.64-3.59,3.89,3.89,0,0,0-2.61-.66c-7.52,0-18,13.74-21.26,18.32a108.14,108.14,0,0,0-11.77,23.87,7.53,7.53,0,0,0,4.58,1.3C433.24,685.54,451.88,656.77,451.88,646.3Z"/><path class="cls-3" d="M532.31,722.49c.66-23.87,19-76.84,19.29-80.76,0-1-.32-1.64-1-1.64-1,0-2.29,1-3.27,2-15.69,14.06-37.93,50.69-43.81,60.82-3.93,14.39-7.2,27.47-7.52,35,0,2.94-1.64,3.27-4.26,3.27h-1.63c-7.85,0-18.31-1.63-18.64-9.15,0-16.68,19.29-81.1,27.47-102.35,1-2.62,4.25-3.93,8.17-3.93,7.85,0,18.64,4.58,18.64,9.82l-.33,1.3C522.83,643,512,675.41,511.06,678c4.9-7.19,10.46-15.37,16.35-22.89,9.81-12.75,23.54-29.43,37.27-29.43,8.18,0,15,4.91,15,13.74l-.32,3.92c-4.58,22.56-20.28,66.38-20.28,85.35,0,3.92.33,5.88,2,5.88,8.17-.65,14.06-11.44,36.95-62.78a3,3,0,0,1,2.61-2,3.37,3.37,0,0,1,3.6,3.27,2.46,2.46,0,0,1-.33,1.31c-22.89,52-30.08,66.05-42.51,66.7l-9.15.33C540.48,741.46,532.31,738.84,532.31,722.49Z"/><path class="cls-3" d="M612.09,741.13c-7.85,0-15.37-1-18.31-7.85-1.64-3.59-2.62-8.82-2.62-14.71,0-25.51,13.41-68,25.51-100.71-6.54-.33-12.75-.33-18-.33a3.78,3.78,0,0,1-3.27-3.27,3.28,3.28,0,0,1,3.27-3.27l20.28.33c4.25-11.12,8.17-20.6,11.44-27.8,1-2.94,4.25-3.92,8.18-3.92,8.5,0,20.27,5.23,20.27,10.14l-.33,1q-4.41,9.81-8.83,21.58l16.35.33a3.27,3.27,0,0,1,3.27,3.27,3.36,3.36,0,0,1-3.59,3.27c-5.56-.33-11.77-.33-18.64-.33-10.14,30.08-21.26,63.76-27.8,91.55-.65,2-3.59,15.37-3.59,21.26,0,2.29.33,2.94,1.31,2.94,3.59,0,9.8-7.85,12.09-10.79,10.14-13.73,21.91-37.93,28.45-52a2.74,2.74,0,0,1,2.94-2,3.53,3.53,0,0,1,1.64.33,3.42,3.42,0,0,1,1.63,2.94,3.34,3.34,0,0,1-.32,1.31c-6.87,15.69-19,39.89-30.08,54.6-3.93,4.58-10.14,11.77-16.35,12.1Z"/><path class="cls-3" d="M689.91,741.13c-27.79-1-37.93-17.33-37.93-37.93,0-10.14,2.29-20.93,6.21-31.39,7.85-20.93,25.18-46.11,49-46.11h1.31c12.42.33,22.56,6.54,22.56,19v.65c-.65,23.22-24.52,51.67-42.18,51.67a13.72,13.72,0,0,1-9.16-3.27,76.46,76.46,0,0,0-1.3,12.42c0,12.43,3.59,25.18,14.38,27.47l3.6.33a31.48,31.48,0,0,0,7.19-1c11.45-4.25,27.8-18.32,48.4-61.15a3,3,0,0,1,2.61-2,4.77,4.77,0,0,1,2,.65,2.59,2.59,0,0,1,1.63,2.62,3.26,3.26,0,0,1-.33,1.31C736,720.2,718,734.92,705,739.5a38.75,38.75,0,0,1-11.44,1.63ZM720,646.3c0-2-.65-2.94-1.63-3.59a3.91,3.91,0,0,0-2.62-.66c-7.52,0-18,13.74-21.25,18.32a107.26,107.26,0,0,0-11.77,23.87,7.51,7.51,0,0,0,4.58,1.3C701.36,685.54,720,656.77,720,646.3Z"/><path class="cls-3" d="M788.65,741.79c-7.84-1.31-13.08-8.51-13.08-19.3,0-27.14,16.35-74.88,19.62-84.36-4.57.33-10.79,2-16,2l-4.9-.65c-5.23,12.75-7.85,19.29-15.37,35.64a3.07,3.07,0,0,1-2.62,2c-1.63,0-3.59-1.63-3.59-3.27l.32-1.31c7.85-17.33,10.14-22.56,15.37-36-2.94-2.29-3.92-5.56-3.92-9.16,0-4.25,1.63-9.48,3.27-13.73,1-2.62,4.57-3.6,8.17-3.6,3.93,0,7.52,1.31,7.52,3.92v1c-1.3,4.26-3.92,12.1-4.9,14.39,8.17-.33,15.37-2.94,21.91-2.94h1c8.5,0,16.67,6.21,18,14.71l.33,2.29c0,4.91-2.62,12.1-6.21,22.24-5.56,15-15.7,44.14-15.7,60.49l.65,5.56c.66,2.29,1.64,3.59,2.62,3.59,1.31.33,1.64,2,1.64,3.6-.33,1.64-1,2.95-2.29,2.95Z"/><circle class="cls-4" cx="239.93" cy="240.35" r="14"/><circle class="cls-4" cx="613.93" cy="240.35" r="14"/></g></g></svg>