<svg xmlns="http://www.w3.org/2000/svg" viewBox="0 0 854.62 765.72"><defs><style>.cls-1{fill:#a67c52;}.cls-1,.cls-3,.cls-5{stroke:#000;stroke-miterlimit:10;}.cls-2{fill:#c7ff64;}.cls-3{fill:#fff;}.cls-4{font-size:283.7px;}.cls-4,.cls-7{fill:#ff4fa8;}.cls-4,.cls-6{font-family:CreamCake, Cream Cake;}.cls-5,.cls-6{fill:#8a2be2;}.cls-5{stroke-width:0.25px;}.cls-6{font-size:340.44px;letter-spacing:0em;}</style></defs><g id="Layer_2" data-name="Layer 2"><g id="Layer_1-2" data-name="Layer 1"><path class="cls-1" d="M621.79,149.72C600.77,74.24,521.63,1.47,426.81.5c-94.82,1-174,73.74-195,149.22-10.48,37.6-5.14,70.94,0,91h390C626.93,220.66,632.27,187.32,621.79,149.72Zm-16.19,71H248a150.4,150.4,0,0,1,3.08-65.63c9.42-33.85,32.43-67.52,63.13-92.38,33-26.77,73-41.75,112.58-42.21,39.55.46,79.53,15.44,112.58,42.21,30.7,24.86,53.71,58.53,63.13,92.37A150.45,150.45,0,0,1,605.6,220.72Z"/><path class="cls-2" d="M818.73,765.72H35.89A35.88,35.88,0,0,1,.46,724.17L78,239.93a35.89,35.89,0,0,1,35.43-30.21H741.21a35.87,35.87,0,0,1,35.43,30.21l77.52,484.24A35.88,35.88,0,0,1,818.73,765.72Z"/><circle class="cls-3" cx="239.81" cy="240.72" r="14"/><circle class="cls-3" cx="613.81" cy="240.72" r="14"/><text class="cls-4" transform="translate(476.49 649.52)">orn</text><path class="cls-5" d="M483.23,470.48a16.31,16.31,0,0,0-12.14-4.91h-.6a2.91,2.91,0,0,0-2.67,3,2.72,2.72,0,0,0,1.19,2.38c2.68,2.08,3.86,6.54,3.86,13.08,0,7.24-1.47,16.79-4,27.63A428.71,428.71,0,0,0,483.23,470.48ZM346.53,614.81c-1.5,3-8.57,14.66-15,20.93a38.79,38.79,0,0,0,8.36,6.91c5-5.31,10.58-13.6,16.11-23.38,1.33-2.34,2.67-4.77,4-7.29-.6-6.93-.94-15.18-1-24.48C354.81,597.73,350.57,607.12,346.53,614.81Z"/><path class="cls-5" d="M491.6,420.81a147.82,147.82,0,0,1-2.72,26.78c-1.47,7.34-3.37,15-5.65,22.89a16.31,16.31,0,0,0-12.14-4.91h-.6a2.91,2.91,0,0,0-2.67,3,2.72,2.72,0,0,0,1.19,2.38c2.68,2.08,3.86,6.54,3.86,13.08,0,7.24-1.47,16.79-4,27.63-17.51,43.53-42,87.24-63.45,113.36a116.39,116.39,0,0,1-16.87,17.29c-5,4-9.63,6.38-13.62,6.85l-8.18.46c-10.74,0-19.77-2.59-26.84-6.94,5-5.31,10.58-13.6,16.11-23.38,1.33-2.34,2.67-4.77,4-7.29,1.34,15.11,4,24,7.65,24h.46c3.24,0,7.48-3.59,12.37-9.93,7.38-9.55,16.23-25.33,25.36-44.47C433.2,524.32,463,437,463,396.76c0-10-1.82-16.8-5.91-20a4.12,4.12,0,0,1-1.81-3.63,4.44,4.44,0,0,1,4.08-4.54h.91C484.79,368.61,491.6,395.85,491.6,420.81Z"/><path class="cls-5" d="M393.56,382.23c-25,71.27-34.5,153-34.5,203.81v1.46c-4.25,10.23-8.49,19.62-12.53,27.31-1.5,3-8.57,14.66-15,20.93A37.07,37.07,0,0,1,322.29,616c-.14-1-.27-2.06-.4-3.12a402,402,0,0,1-.51-89.93c-6.24,16.49-12.91,32.43-19.75,47.15-5.59,12-11.3,23.19-17,33.19-13.62,24.06-27.24,42.21-37.68,44.94a61,61,0,0,1-12.71,1.36c-16.34,0-33.14-6.36-37.22-18.16-3.18-7.71-4.09-18.16-4.09-30.41,0-64.46,35-178.84,40.4-213.34v-1.36c0-2.73-1.36-3.64-2.72-3.64-1.82,0-3.18.91-5,1.82-20.88,12.26-59.47,86.24-59.47,102.13,0,1.82.46,3.18,1.36,3.18a4.42,4.42,0,0,1,3.64,4.54,4.84,4.84,0,0,1-2.73,4.08c-5.9,1.82-13.16,4.09-20.42,4.09a26.6,26.6,0,0,1-11.81-2.72c-5.9-3.64-8.17-9.54-8.17-16.35a44.64,44.64,0,0,1,1.37-10.89c9.07-34,54-103.95,92.59-107.12a105.39,105.39,0,0,1,11.81-.46c24,0,37.22,8.63,39.49,21.34l.45,3.17c0,30.42-43.12,175.22-43.12,227.87v5c.45,9.08,3.18,12.26,6.35,12.26,10.44,0,30-31.78,33.14-38.13,16.1-30.65,34.31-79,49.6-121.55q2.13-6,4.19-11.73c5.47-15.36,10.48-29.59,14.75-41.48,3.18-12.25,6.36-24.51,10.44-37.22.91-7.26,13.17-10.89,24.51-10.89,10.44,0,20,2.72,20,7.26Z"/><text class="cls-6" transform="translate(506.69 542.21)">ell</text><path class="cls-7" d="M322.74,463.19a69,69,0,0,0-7.72.3c-25.27,2.08-54.71,47.86-60.65,70.16a29.56,29.56,0,0,0-.89,7.13c0,4.46,1.48,8.33,5.35,10.71a17.32,17.32,0,0,0,7.73,1.78c4.76,0,9.51-1.49,13.37-2.68a3.15,3.15,0,0,0,1.79-2.67,2.9,2.9,0,0,0-2.38-3c-.59,0-.89-.89-.89-2.07,0-10.41,25.27-58.87,38.94-66.89a13.09,13.09,0,0,1,2.3-1.05q2.13-6,4.19-11.73Zm160.49,7.29a16.31,16.31,0,0,0-12.14-4.91h-.6a2.91,2.91,0,0,0-2.67,3,2.72,2.72,0,0,0,1.19,2.38c2.68,2.08,3.86,6.54,3.86,13.08,0,7.24-1.47,16.79-4,27.63-11.68,50.59-45.9,129-58.15,129h-.29c-2.41,0-4.14-5.8-5-15.68a116.39,116.39,0,0,1-16.87,17.29c5,4.49,12.2,7.31,21.28,7.31l5.35-.3c20.22-2.37,64.21-80,74.62-132a97,97,0,0,0,1.78-17.54C491.6,488.68,489.55,476.91,483.23,470.48Zm-55.84,4v-.89c0-3-6.24-4.76-13.08-4.76-7.43,0-15.46,2.38-16.06,7.14-2.67,8.32-4.75,16.35-6.83,24.37-8.13,22.62-20.31,58.23-32.36,87.15-4.25,10.23-8.49,19.62-12.53,27.31-1.5,3-8.57,14.66-15,20.93-2.47,2.42-4.84,4-6.74,4-2.09,0-3.87-2.08-4.17-8v-3.28a125.26,125.26,0,0,1,1.23-15.6,402,402,0,0,1-.51-89.93c-6.24,16.49-12.91,32.43-19.75,47.15-3.3,17.38-5.64,34.2-5.64,47.68,0,8,.6,14.87,2.67,19.92,2.68,7.73,13.68,11.89,24.39,11.89a40,40,0,0,0,8.32-.89c2.59-.68,5.49-2.81,8.56-6.05,5-5.31,10.58-13.6,16.11-23.38,1.33-2.34,2.67-4.77,4-7.29a410,410,0,0,0,20.09-45.33,263,263,0,0,0,.39,59.39c7.38-9.55,16.23-25.33,25.36-44.47C408.28,550,414.87,510.22,427.39,474.49Z"/></g></g></svg>